<svg width="22" height="27" viewBox="0 0 22 27" fill="none" xmlns="http://www.w3.org/2000/svg">
<path d="M17.9292 14.53C17.9554 12.4988 19.0462 10.5769 20.7767 9.51297C19.685 7.95383 17.8565 6.9653 15.954 6.90577C13.925 6.69279 11.9579 8.11994 10.9239 8.11994C9.86988 8.11994 8.2779 6.92692 6.56361 6.96219C4.32909 7.03438 2.24596 8.30481 1.15883 10.2584C-1.17809 14.3044 0.565039 20.2506 2.80361 23.5211C3.92361 25.1226 5.23258 26.9115 6.94533 26.848C8.62136 26.7785 9.24733 25.7793 11.2704 25.7793C13.2748 25.7793 13.8621 26.848 15.6096 26.8077C17.408 26.7785 18.5411 25.1991 19.6218 23.5825C20.4266 22.4414 21.0458 21.1802 21.4566 19.8457C19.3431 18.9518 17.9317 16.8248 17.9292 14.53Z" fill="white"/>
<path d="M14.6284 4.75494C15.609 3.57777 16.0921 2.06472 15.9751 0.537109C14.477 0.694459 13.0932 1.41047 12.0993 2.54247C11.1275 3.6485 10.6217 5.13492 10.7173 6.60415C12.216 6.61958 13.6893 5.92298 14.6284 4.75494Z" fill="white"/>
</svg>
