<svg width="8" height="7" viewBox="0 0 8 7" fill="none" xmlns="http://www.w3.org/2000/svg">
<path d="M3.13064 6.17989C3.09361 6.14382 2.93527 6.0076 2.80503 5.88072C1.98588 5.13683 0.645111 3.19626 0.235857 2.18057C0.170096 2.02631 0.0309111 1.63633 0.0219727 1.42797C0.0219727 1.22832 0.0679419 1.03799 0.161157 0.856372C0.291403 0.629972 0.49635 0.448354 0.738326 0.348837C0.906242 0.284773 1.40871 0.185257 1.41765 0.185257C1.96737 0.08574 2.86057 0.0310059 3.84763 0.0310059C4.78809 0.0310059 5.6449 0.08574 6.20292 0.167219C6.21186 0.176549 6.83627 0.276066 7.05016 0.384912C7.4409 0.584567 7.68351 0.974548 7.68351 1.3919V1.42797C7.67393 1.69978 7.43132 2.27137 7.42238 2.27137C7.01249 3.23233 5.73748 5.12812 4.89024 5.89005C4.89024 5.89005 4.67253 6.10463 4.53653 6.19793C4.34117 6.34347 4.09919 6.41562 3.85721 6.41562C3.58714 6.41562 3.33559 6.33414 3.13064 6.17989Z" fill="#030229"/>
</svg>
