<svg width="22" height="22" viewBox="0 0 22 22" fill="none" xmlns="http://www.w3.org/2000/svg">
<g clip-path="url(#clip0_84_887)">
<path d="M10.9786 0.0180664C7.47884 0.0180664 4.6316 2.86535 4.6316 6.36502C4.6316 8.53275 5.72425 10.4498 7.38749 11.5954C5.83464 12.1312 4.41134 13.0164 3.21561 14.2121C1.14198 16.2858 0 19.0427 0 21.9752H1.7154C1.7154 16.8674 5.87082 12.712 10.9786 12.712C14.4783 12.712 17.3255 9.86474 17.3255 6.36502C17.3255 2.86531 14.4783 0.0180664 10.9786 0.0180664ZM10.9786 10.9966C8.42471 10.9966 6.347 8.91891 6.347 6.36507C6.347 3.81122 8.42471 1.73346 10.9786 1.73346C13.5324 1.73346 15.6101 3.81118 15.6101 6.36507C15.6101 8.91896 13.5324 10.9966 10.9786 10.9966Z" fill="#1D191F"/>
<path d="M18.3976 16.6575V13.0551H16.6822V16.6575H13.0798V18.3729H16.6822V21.9752H18.3976V18.3729H21.9999V16.6575H18.3976Z" fill="#1D191F"/>
</g>
<defs>
<clipPath id="clip0_84_887">
<rect width="22" height="22" fill="white" transform="translate(0 -0.00335693)"/>
</clipPath>
</defs>
</svg>
