<svg width="17" height="19" viewBox="0 0 17 19" fill="none" xmlns="http://www.w3.org/2000/svg">
<path fill-rule="evenodd" clip-rule="evenodd" d="M12.2099 1.33327L12.2108 2.00331C14.673 2.19629 16.2995 3.87409 16.3022 6.44708L16.3119 13.9784C16.3154 16.7837 14.553 18.5097 11.7281 18.5142L4.82765 18.5231C2.02035 18.5267 0.2359 16.7596 0.23237 13.9463L0.222662 6.50336C0.219132 3.9134 1.78825 2.24007 4.25048 2.01404L4.2496 1.34399C4.24871 0.950891 4.53995 0.655176 4.92825 0.655176C5.31656 0.654283 5.60779 0.949104 5.60868 1.3422L5.60956 1.96758L10.8517 1.96043L10.8508 1.33505C10.85 0.941957 11.1412 0.647136 11.5295 0.646242C11.909 0.645349 12.209 0.94017 12.2099 1.33327ZM1.5827 6.77948L14.944 6.76162V6.44893C14.9061 4.52812 13.9424 3.52037 12.2126 3.37028L12.2135 4.05819C12.2135 4.44235 11.9144 4.747 11.5349 4.747C11.1466 4.7479 10.8544 4.44414 10.8544 4.05998L10.8536 3.33633L5.6114 3.34347L5.61229 4.06623C5.61229 4.45129 5.32194 4.75504 4.93363 4.75504C4.54532 4.75594 4.25321 4.45307 4.25321 4.06802L4.25232 3.3801C2.53141 3.55253 1.57917 4.56386 1.58182 6.50164L1.5827 6.77948ZM11.1633 10.8398V10.8496C11.1721 11.2606 11.5075 11.5724 11.9143 11.5634C12.3115 11.5536 12.6283 11.2132 12.6195 10.8023C12.6009 10.4092 12.2824 10.0884 11.8861 10.0893C11.4801 10.0983 11.1624 10.4288 11.1633 10.8398ZM11.8923 14.8512C11.4863 14.8423 11.1589 14.5037 11.158 14.0927C11.1492 13.6817 11.4749 13.3413 11.8808 13.3315H11.8896C12.3044 13.3315 12.6407 13.6701 12.6407 14.09C12.6416 14.5099 12.3062 14.8503 11.8923 14.8512ZM7.52727 10.8542C7.54492 11.2651 7.88116 11.5859 8.28712 11.568C8.68426 11.5492 9.00108 11.2098 8.98343 10.7988C8.97372 10.3968 8.64719 10.0841 8.25006 10.085C7.8441 10.1028 7.52639 10.4432 7.52727 10.8542ZM8.29061 14.8111C7.88465 14.829 7.54929 14.5083 7.53076 14.0973C7.53076 13.6863 7.84758 13.3469 8.25354 13.3281C8.65068 13.3272 8.97809 13.6399 8.98692 14.041C9.00545 14.4529 8.68774 14.7924 8.29061 14.8111ZM3.89122 10.8854C3.90887 11.2963 4.24511 11.6179 4.65107 11.5992C5.0482 11.5813 5.36503 11.2409 5.3465 10.83C5.33767 10.4279 5.01114 10.1152 4.61312 10.1161C4.20716 10.134 3.89034 10.4744 3.89122 10.8854ZM4.65484 14.8156C4.24888 14.8344 3.91352 14.5127 3.89499 14.1018C3.89411 13.6908 4.21182 13.3504 4.61777 13.3326C5.01491 13.3317 5.34232 13.6443 5.35115 14.0464C5.36968 14.4573 5.05286 14.7977 4.65484 14.8156Z" fill="#5D80D9"/>
</svg>
