<svg xmlns="http://www.w3.org/2000/svg" version="1.1" width="32px" height="32px" style="shape-rendering:geometricPrecision; text-rendering:geometricPrecision; image-rendering:optimizeQuality; fill-rule:evenodd; clip-rule:evenodd" xmlns:xlink="http://www.w3.org/1999/xlink">
<g><path style="opacity:0.923" fill="#00ba00" d="M 10.5,1.5 C 25.1707,0.336593 31.3374,7.00326 29,21.5C 23.8033,29.5751 16.6366,31.7418 7.5,28C 1.78026,23.1162 -0.0530753,16.9495 2,9.5C 4.09821,5.89715 6.93154,3.23049 10.5,1.5 Z M 19.5,11.5 C 20.2389,11.369 20.9056,11.5357 21.5,12C 18.9841,14.6833 16.3174,17.1833 13.5,19.5C 11.2163,18.4182 10.0496,16.7516 10,14.5C 11.0195,15.6872 12.1861,16.6872 13.5,17.5C 15.8545,15.8122 17.8545,13.8122 19.5,11.5 Z"/></g>
</svg>
