<svg width="26" height="24" viewBox="0 0 26 24" fill="none" xmlns="http://www.w3.org/2000/svg">
<path fill-rule="evenodd" clip-rule="evenodd" d="M19.3374 0.0924072C21.0498 0.0924072 22.697 0.769176 23.9088 1.98353C25.1219 3.19533 25.7999 4.82979 25.7999 6.54087V16.6286C25.7999 20.1912 22.9013 23.077 19.3374 23.077H6.72271C3.15881 23.077 0.261475 20.1912 0.261475 16.6286V6.54087C0.261475 2.97825 3.14604 0.0924072 6.72271 0.0924072H19.3374ZM21.3689 8.44371L21.4711 8.34156C21.7763 7.97125 21.7763 7.43494 21.457 7.06463C21.2795 6.87437 21.0357 6.75817 20.7815 6.73263C20.5134 6.71859 20.258 6.80925 20.0652 6.98802L14.3075 11.5849C13.5669 12.1991 12.5058 12.1991 11.7537 11.5849L6.00754 6.98802C5.61042 6.69432 5.06134 6.73263 4.73062 7.0774C4.38585 7.42217 4.34754 7.97125 4.63996 8.35433L4.80723 8.52032L10.6172 13.0534C11.3323 13.6152 12.1993 13.9217 13.1072 13.9217C14.0126 13.9217 14.8949 13.6152 15.6087 13.0534L21.3689 8.44371Z" fill="#93D9B9"/>
</svg>
