<svg width="14" height="22" viewBox="0 0 14 22" fill="none" xmlns="http://www.w3.org/2000/svg">
<path d="M9.25 10.25H7.75V4.25H8.5C9.29489 4.25247 10.0565 4.56934 10.6186 5.13141C11.1807 5.69349 11.4975 6.45511 11.5 7.25C11.5 7.44891 11.579 7.63968 11.7197 7.78033C11.8603 7.92098 12.0511 8 12.25 8C12.4489 8 12.6397 7.92098 12.7803 7.78033C12.921 7.63968 13 7.44891 13 7.25C13 6.05653 12.5259 4.91193 11.682 4.06802C10.8381 3.22411 9.69347 2.75 8.5 2.75H7.75V1.25C7.75 1.05109 7.67098 0.860322 7.53033 0.71967C7.38968 0.579018 7.19891 0.5 7 0.5C6.80109 0.5 6.61032 0.579018 6.46967 0.71967C6.32902 0.860322 6.25 1.05109 6.25 1.25V2.75H5.125C3.93153 2.75 2.78693 3.22411 1.94302 4.06802C1.09911 4.91193 0.625 6.05653 0.625 7.25C0.625 8.44347 1.09911 9.58807 1.94302 10.432C2.78693 11.2759 3.93153 11.75 5.125 11.75H6.25V17.75H4.75C3.95511 17.7475 3.19349 17.4307 2.63141 16.8686C2.06934 16.3065 1.75247 15.5449 1.75 14.75C1.75 14.5511 1.67098 14.3603 1.53033 14.2197C1.38968 14.079 1.19891 14 1 14C0.801088 14 0.610322 14.079 0.46967 14.2197C0.329018 14.3603 0.25 14.5511 0.25 14.75C0.25 15.9435 0.724106 17.0881 1.56802 17.932C2.41193 18.7759 3.55653 19.25 4.75 19.25H6.25V20.75C6.25 20.9489 6.32902 21.1397 6.46967 21.2803C6.61032 21.421 6.80109 21.5 7 21.5C7.19891 21.5 7.38968 21.421 7.53033 21.2803C7.67098 21.1397 7.75 20.9489 7.75 20.75V19.25H9.25C10.4435 19.25 11.5881 18.7759 12.432 17.932C13.2759 17.0881 13.75 15.9435 13.75 14.75C13.75 13.5565 13.2759 12.4119 12.432 11.568C11.5881 10.7241 10.4435 10.25 9.25 10.25ZM6.25 10.25H5.125C4.32935 10.25 3.56629 9.93393 3.00368 9.37132C2.44107 8.80871 2.125 8.04565 2.125 7.25C2.125 6.45435 2.44107 5.69129 3.00368 5.12868C3.56629 4.56607 4.32935 4.25 5.125 4.25H6.25V10.25ZM9.25 17.75H7.75V11.75H9.25C10.0456 11.75 10.8087 12.0661 11.3713 12.6287C11.9339 13.1913 12.25 13.9544 12.25 14.75C12.25 15.5456 11.9339 16.3087 11.3713 16.8713C10.8087 17.4339 10.0456 17.75 9.25 17.75Z" fill="white"/>
</svg>
