<svg width="9" height="13" viewBox="0 0 9 13" fill="none" xmlns="http://www.w3.org/2000/svg">
<path d="M0.5 13V7.5M0.5 7.5V0.5H5C5.45963 0.5 5.91475 0.59053 6.33939 0.766422C6.76403 0.942313 7.14987 1.20012 7.47487 1.52513C7.79988 1.85013 8.05769 2.23597 8.23358 2.66061C8.40947 3.08525 8.5 3.54037 8.5 4C8.5 4.45963 8.40947 4.91475 8.23358 5.33939C8.05769 5.76403 7.79988 6.14987 7.47487 6.47487C7.14987 6.79988 6.76403 7.05769 6.33939 7.23358C5.91475 7.40947 5.45963 7.5 5 7.5H0.5ZM0.5 7.5H5.5C6.29565 7.5 7.05871 7.81607 7.62132 8.37868C8.18393 8.94129 8.5 9.70435 8.5 10.5V13" stroke="#C0C0C0"/>
</svg>
