<svg width="19" height="12" viewBox="0 0 19 12" fill="none" xmlns="http://www.w3.org/2000/svg">
<path d="M2.05 10.9749C1.71667 11.2082 1.375 11.2249 1.025 11.0249C0.675 10.8249 0.5 10.5249 0.5 10.1249V1.87488C0.5 1.47488 0.675 1.17888 1.025 0.986885C1.375 0.795551 1.71667 0.808218 2.05 1.02488L8.25 5.17488C8.55 5.37488 8.7 5.64988 8.7 5.99988C8.7 6.34988 8.55 6.62488 8.25 6.82488L2.05 10.9749ZM12.05 10.9749C11.7167 11.2082 11.375 11.2249 11.025 11.0249C10.675 10.8249 10.5 10.5249 10.5 10.1249V1.87488C10.5 1.47488 10.675 1.17888 11.025 0.986885C11.375 0.795551 11.7167 0.808218 12.05 1.02488L18.25 5.17488C18.55 5.37488 18.7 5.64988 18.7 5.99988C18.7 6.34988 18.55 6.62488 18.25 6.82488L12.05 10.9749Z" fill="url(#paint0_linear_1_324)"/>
<defs>
<linearGradient id="paint0_linear_1_324" x1="9.6" y1="0.852295" x2="9.6" y2="11.1633" gradientUnits="userSpaceOnUse">
<stop offset="0.645833" stop-color="#6364FF"/>
<stop offset="1" stop-color="#563ACC"/>
</linearGradient>
</defs>
</svg>
