<svg width="6" height="19" viewBox="0 0 6 19" fill="none" xmlns="http://www.w3.org/2000/svg">
<path d="M4.48782 17.657C5.36049 16.7844 5.36049 15.3695 4.48782 14.4968C3.61515 13.6241 2.20027 13.6241 1.3276 14.4968C0.454929 15.3695 0.454929 16.7844 1.3276 17.657C2.20023 18.5297 3.61511 18.5297 4.48782 17.657Z" fill="#2A51B3"/>
<path d="M4.48782 10.9532C5.36049 10.0805 5.36049 8.66561 4.48782 7.79294C3.61515 6.92028 2.20027 6.92028 1.3276 7.79294C0.454929 8.66561 0.454929 10.0805 1.3276 10.9532C2.20023 11.8258 3.61511 11.8258 4.48782 10.9532Z" fill="#2A51B3"/>
<path d="M4.48782 4.24931C5.36049 3.37664 5.36049 1.96175 4.48782 1.08908C3.61515 0.216413 2.20027 0.216413 1.3276 1.08908C0.454929 1.96175 0.454929 3.37664 1.3276 4.24931C2.20023 5.12198 3.61511 5.12198 4.48782 4.24931Z" fill="#2A51B3"/>
</svg>
