<svg width="29" height="31" viewBox="0 0 29 31" fill="none" xmlns="http://www.w3.org/2000/svg">
<path d="M13.5506 15.0201L0.932495 28.4127C0.932969 28.4155 0.933917 28.4178 0.934391 28.4206C1.32135 29.8747 2.64959 30.9456 4.22601 30.9456C4.85617 30.9456 5.44781 30.7752 5.95519 30.4761L5.99549 30.4525L20.1987 22.2567L13.5506 15.0201" fill="#EA4335"/>
<path d="M26.3163 12.7396L26.3042 12.7313L20.1723 9.17661L13.264 15.3239L20.1964 22.2554L26.2959 18.736C27.3653 18.1587 28.0912 17.0313 28.0912 15.7313C28.0912 14.4406 27.375 13.3188 26.3163 12.7396" fill="#FBBC04"/>
<path d="M0.932006 2.99403C0.856154 3.27373 0.816284 3.56671 0.816284 3.87095V27.5362C0.816284 27.8399 0.85568 28.1339 0.93248 28.4126L13.9848 15.3626L0.932006 2.99403Z" fill="#4285F4"/>
<path d="M13.6436 15.7036L20.1747 9.17443L5.98753 0.949005C5.47186 0.640145 4.87002 0.461895 4.22599 0.461895C2.64958 0.461895 1.31956 1.53461 0.932481 2.99061C0.932007 2.99203 0.932007 2.99298 0.932007 2.99428L13.6436 15.7036Z" fill="#34A853"/>
</svg>
