<svg width="23" height="21" viewBox="0 0 23 21" fill="none" xmlns="http://www.w3.org/2000/svg">
<path d="M18.0896 13.0786C17.8111 13.3485 17.6832 13.7388 17.7466 14.1216L18.7025 19.4117C18.7832 19.8601 18.5939 20.3139 18.2187 20.573C17.8509 20.8418 17.3617 20.8741 16.9606 20.659L12.1984 18.1752C12.0328 18.0871 11.849 18.0397 11.6608 18.0344H11.3694C11.2684 18.0494 11.1694 18.0817 11.0791 18.1311L6.31584 20.6268C6.08036 20.745 5.81371 20.787 5.55242 20.745C4.91589 20.6246 4.49117 20.0182 4.59547 19.3784L5.55242 14.0883C5.61586 13.7023 5.48791 13.3098 5.20943 13.0356L1.32676 9.2723C1.00204 8.95726 0.889143 8.48416 1.03752 8.05729C1.18161 7.6315 1.54934 7.32076 1.99341 7.25087L7.33731 6.47563C7.74375 6.43369 8.10072 6.18639 8.28351 5.82081L10.6383 0.993019C10.6942 0.885496 10.7662 0.786575 10.8533 0.702707L10.9501 0.62744C11.0006 0.571528 11.0587 0.525293 11.1232 0.48766L11.2404 0.444651L11.4232 0.369385H11.8759C12.2802 0.411319 12.6361 0.653246 12.8221 1.01452L15.208 5.82081C15.38 6.17241 15.7144 6.41649 16.1005 6.47563L21.4444 7.25087C21.896 7.31538 22.2734 7.6272 22.4228 8.05729C22.5637 8.48846 22.4422 8.96156 22.111 9.2723L18.0896 13.0786Z" fill="#C4BC4B"/>
</svg>
