<svg width="22" height="16" viewBox="0 0 22 16" fill="none" xmlns="http://www.w3.org/2000/svg">
<path d="M21.0575 2.9449C20.938 2.50093 20.704 2.09614 20.3789 1.77103C20.0538 1.44592 19.649 1.2119 19.205 1.0924C17.57 0.649902 11 0.649902 11 0.649902C11 0.649902 4.43002 0.649902 2.79501 1.0924C2.35104 1.2119 1.94625 1.44592 1.62114 1.77103C1.29603 2.09614 1.06202 2.50093 0.942515 2.9449C0.637224 4.61235 0.489075 6.30477 0.500015 7.9999C0.489075 9.69503 0.637224 11.3875 0.942515 13.0549C1.06202 13.4989 1.29603 13.9037 1.62114 14.2288C1.94625 14.5539 2.35104 14.7879 2.79501 14.9074C4.43002 15.3499 11 15.3499 11 15.3499C11 15.3499 17.57 15.3499 19.205 14.9074C19.649 14.7879 20.0538 14.5539 20.3789 14.2288C20.704 13.9037 20.938 13.4989 21.0575 13.0549C21.3628 11.3875 21.511 9.69503 21.5 7.9999C21.511 6.30477 21.3628 4.61235 21.0575 2.9449ZM8.90001 11.1499V4.8499L14.3525 7.9999L8.90001 11.1499Z" fill="url(#paint0_linear_1_720)"/>
<defs>
<linearGradient id="paint0_linear_1_720" x1="11" y1="0.649902" x2="11" y2="15.3499" gradientUnits="userSpaceOnUse">
<stop stop-color="#6364FF"/>
<stop offset="1" stop-color="#563ACC"/>
</linearGradient>
</defs>
</svg>
